<svg xmlns="http://www.w3.org/2000/svg" xmlns:xlink="http://www.w3.org/1999/xlink" id="Layer_1" x="0px" y="0px" viewBox="0 0 512.002 512.002" style="enable-background:new 0 0 512.002 512.002;" xml:space="preserve" width="512" height="512">
<g id="XMLID_1386_">
	<g id="XMLID_27_">
		<path id="XMLID_1262_" d="M502.001,0h-442c-5.523,0-10,4.478-10,10v338.003h-27.5c-12.407,0-22.5,10.094-22.5,22.5v118.998    c0,12.406,10.093,22.499,22.5,22.499h43c6.889,0,13.061-3.115,17.192-8.006l4.61,1.808c10.49,4.114,21.522,6.2,32.789,6.2h58.51    H197.6H211c15.439,0,28-12.561,28-28c0-3.773-0.754-7.372-2.113-10.659c9.507-4.481,16.105-14.152,16.105-25.34    c0-3.928-0.816-7.667-2.283-11.063C259.776,432.3,266,422.868,266,412.003c0-11.338-6.778-21.116-16.492-25.515    c1.314-3.241,2.045-6.779,2.045-10.486c0-15.438-12.561-27.999-28-27.999h-49.486l6.106-18.128    c1.845-5.479,2.53-11.144,2.083-16.721h163.745c5.523,0,10-4.478,10-10v-59.203c0-35.121-28.573-63.694-63.694-63.694h-34.25    v-0.515c10.852-9.67,17.704-23.739,17.704-39.384v-30.458c9.394-7.654,15.407-19.307,15.407-32.341V50c0-5.522-4.477-10-10-10    h-56.641c-29.933,0-54.285,24.353-54.285,54.285v14.982v31.09c0,15.645,6.851,29.714,17.704,39.384v0.515h-34.25    c-35.121,0-63.694,28.573-63.694,63.694v59.203c0,5.522,4.477,10,10,10h18.45l-3.167,8.752    c-3.974,10.983-11.812,20.107-22.07,25.693l-12.191,6.639c-3.006-2.87-6.799-4.922-11.022-5.783V20h422v380H336.128    c-5.523,0-10,4.478-10,10s4.477,10,10,10h165.873c5.523,0,10-4.478,10-10V10C512.001,4.478,507.524,0,502.001,0z M68,489.501    c0,1.378-1.122,2.499-2.5,2.499h-43c-1.378,0-2.5-1.121-2.5-2.499V370.503c0-1.379,1.122-2.5,2.5-2.5h43    c1.378,0,2.5,1.121,2.5,2.5V489.501z M166.596,201.324c0.091-0.356,0.159-0.712,0.21-1.067h21.14v84.469l-32.31-40.546    L166.596,201.324z M238.057,293.154h-30.111V190.917c4.774,1.424,9.825,2.201,15.056,2.201s10.282-0.776,15.056-2.201V293.154z     M336.001,243.951v49.203H276.76l32.194-40.401c1.953-2.45,2.644-5.674,1.867-8.709l-11.032-43.133    C320.328,204.472,336.001,222.41,336.001,243.951z M279.042,200.257c0.051,0.355,0.119,0.712,0.21,1.067l10.96,42.855    l-32.155,40.353v-84.276H279.042z M255.76,119.268v21.09c0,18.063-14.696,32.76-32.759,32.76s-32.759-14.696-32.759-32.76v-21.09    h59.217H255.76z M190.242,94.285c0-18.905,15.38-34.285,34.285-34.285h46.641v17.559c0,11.971-9.739,21.709-21.709,21.709h-59.217    V94.285z M110.001,293.154v-49.203c0-21.484,15.591-39.384,36.05-43.011l-11.024,43.104c-0.776,3.035-0.085,6.259,1.867,8.709    l20.114,25.241c-1.415-0.604-2.868-1.142-4.363-1.597l-9.741-2.962c-5.088-1.546-10.501,1.162-12.313,6.165l-4.904,13.554H110.001    z M102.779,365.164c14.553-7.924,25.673-20.87,31.312-36.453l12.077-33.379l0.659,0.2c5.718,1.738,10.373,5.622,13.108,10.936    c2.735,5.313,3.191,11.359,1.284,17.022l-10.549,31.32c-1.028,3.052-0.523,6.412,1.355,9.026c1.878,2.615,4.901,4.166,8.122,4.166    h63.407c4.411,0,8,3.589,8,8s-3.588,7.999-8,7.999h-20.698c-5.523,0-10,4.478-10,10s4.477,10,10,10h2.708    c0.013,0,0.025,0.002,0.039,0.002H238c4.411,0,8,3.588,8,7.999s-3.588,8-8,8h-13.008h-19.392h-2.746c-5.523,0-10,4.478-10,10    s4.477,10,10,10h2.746h19.392c4.411,0,8,3.589,8,8s-3.588,7.999-8,7.999H211h-6.254h-1.891c-5.523,0-10,4.478-10,10    s4.477,10,10,10h1.891H211c4.411,0,8,3.589,8,8s-3.589,8-8,8H197.6h-18.999h-58.51c-8.757,0-17.332-1.621-25.486-4.819L88,484.593    v-111.38L102.779,365.164z"></path>
		<path id="XMLID_1411_" d="M414.001,313.154h48c5.523,0,10-4.478,10-10s-4.477-10-10-10h-48c-5.523,0-10,4.478-10,10    S408.478,313.154,414.001,313.154z"></path>
		<path id="XMLID_1429_" d="M462.001,245.154h-48c-5.523,0-10,4.478-10,10s4.477,10,10,10h48c5.523,0,10-4.478,10-10    S467.524,245.154,462.001,245.154z"></path>
		<path id="XMLID_1430_" d="M462.001,197.154h-48c-5.523,0-10,4.478-10,10s4.477,10,10,10h48c5.523,0,10-4.478,10-10    S467.524,197.154,462.001,197.154z"></path>
		<path id="XMLID_1431_" d="M388.43,128.821c1.953,1.952,4.512,2.929,7.071,2.929s5.119-0.977,7.071-2.929l31.5-31.5    c3.905-3.905,3.905-10.237,0-14.143c-3.905-3.904-10.237-3.904-14.143,0l-24.429,24.429l-7.429-7.429    c-3.905-3.904-10.237-3.904-14.143,0c-3.905,3.905-3.905,10.237,0,14.143L388.43,128.821z"></path>
		<path id="XMLID_1451_" d="M460.001,40h-112c-5.523,0-10,4.478-10,10v112c0,5.522,4.477,10,10,10h112c5.523,0,10-4.478,10-10V50    C470.001,44.478,465.524,40,460.001,40z M450.001,152h-92V60h92V152z"></path>
		<path id="XMLID_1454_" d="M296.131,400.003c-2.63,0-5.21,1.06-7.07,2.93c-1.87,1.86-2.93,4.44-2.93,7.07s1.06,5.21,2.93,7.07    c1.86,1.859,4.44,2.93,7.07,2.93s5.21-1.07,7.07-2.93c1.86-1.86,2.93-4.44,2.93-7.07s-1.07-5.21-2.93-7.07    C301.341,401.063,298.761,400.003,296.131,400.003z"></path>
	</g>
</g>















</svg>